<svg   viewBox="0 0 40 40"  xmlns="http://www.w3.org/2000/svg">

<symbol id="sun"  width="40" height="40" fill="none">
    <g clip-path="url(#clip0_1_339)">
<path d="M20.0002 26.6666C23.6821 26.6666 26.6668 23.6818 26.6668 19.9999C26.6668 16.318 23.6821 13.3333 20.0002 13.3333C16.3183 13.3333 13.3335 16.318 13.3335 19.9999C13.3335 23.6818 16.3183 26.6666 20.0002 26.6666Z" stroke="#111111" stroke-opacity="0.8" stroke-width="2" stroke-linecap="round" stroke-linejoin="round"/>
<path d="M20 5.33325V7.99992" stroke="#111111" stroke-opacity="0.8" stroke-width="2" stroke-linecap="round" stroke-linejoin="round"/>
<path d="M20 32V34.6667" stroke="#111111" stroke-opacity="0.8" stroke-width="2" stroke-linecap="round" stroke-linejoin="round"/>
<path d="M9.62646 9.62671L11.5198 11.52" stroke="#111111" stroke-opacity="0.8" stroke-width="2" stroke-linecap="round" stroke-linejoin="round"/>
<path d="M28.48 28.48L30.3733 30.3733" stroke="#111111" stroke-opacity="0.8" stroke-width="2" stroke-linecap="round" stroke-linejoin="round"/>
<path d="M5.3335 20H8.00016" stroke="#111111" stroke-opacity="0.8" stroke-width="2" stroke-linecap="round" stroke-linejoin="round"/>
<path d="M32 20H34.6667" stroke="#111111" stroke-opacity="0.8" stroke-width="2" stroke-linecap="round" stroke-linejoin="round"/>
<path d="M9.62646 30.3733L11.5198 28.48" stroke="#111111" stroke-opacity="0.8" stroke-width="2" stroke-linecap="round" stroke-linejoin="round"/>
<path d="M28.48 11.52L30.3733 9.62671" stroke="#111111" stroke-opacity="0.8" stroke-width="2" stroke-linecap="round" stroke-linejoin="round"/>
</g>
<defs>
<clipPath id="clip0_1_339">
<rect width="32" height="32" fill="white" transform="translate(4 4)"/>
</clipPath>
</defs>
  </symbol>
 

<symbol id="moon"  width="40" height="40">
 <path d="M32.0001 21.0533C31.7904 23.3229 30.9386 25.4859 29.5444 27.2891C28.1503 29.0922 26.2714 30.4611 24.1277 31.2354C21.984 32.0097 19.6641 32.1575 17.4394 31.6615C15.2148 31.1654 13.1774 30.0461 11.5657 28.4344C9.95405 26.8227 8.8347 24.7853 8.33866 22.5607C7.84261 20.336 7.9904 18.0161 8.76473 15.8724C9.53905 13.7287 10.9079 11.8498 12.7111 10.4557C14.5142 9.06152 16.6772 8.20974 18.9468 8C17.618 9.79769 16.9786 12.0126 17.1448 14.2419C17.3111 16.4712 18.2719 18.5667 19.8526 20.1475C21.4334 21.7282 23.5289 22.689 25.7582 22.8553C27.9875 23.0215 30.2024 22.3821 32.0001 21.0533Z" stroke="white" stroke-opacity="0.8" stroke-width="2" stroke-linecap="round" stroke-linejoin="round"/>

  </symbol>
 </svg>
